<svg width="372" height="135" viewBox="0 0 372 135" fill="none" xmlns="http://www.w3.org/2000/svg">
<path fill-rule="evenodd" clip-rule="evenodd" d="M210.083 77.8107L205.667 82.5699V98H190V31.4003L205.667 21V61.8796L207.248 59.6252L219.056 43.7944H237.838L237.675 44H252.229V78.4483C252.229 82.9891 254.395 85.2595 258.729 85.2595C262.454 85.2595 265.102 83.9038 266.675 81.1924V44H283V97.02H267.783L267.301 91.2868C263.866 95.7623 259.227 98 253.384 98C247.67 98 243.336 96.3176 240.382 92.9528C237.461 89.5554 236 84.6878 236 78.3503V46.1196L220.218 66.0878L239 98H221.055L210.083 77.8107ZM0 31L15 22.0759V36.0759L0 45V31ZM0 53L15 44V98H0V53ZM39.8647 44.9576V30L24.3523 39V44.9576H18V56.2293H24.3523V82.0963C24.3523 87.4592 25.6258 91.4573 28.1728 94.0906C30.7199 96.7238 34.6632 98.0405 40.0028 98.0405C43.0408 98.0405 45.4973 97.7871 48.7486 96.6435C52 95.5 55.5 92 55.5 92L49.5 83C49.0688 83.0796 48.4674 83.4903 47.8018 83.9448C46.8567 84.5901 45.7823 85.3237 44.8821 85.3237C42.8874 85.3237 41.5525 84.9383 40.8774 84.1676C40.2022 83.3969 39.8647 82.0321 39.8647 80.0732V56.2293H51.0582V44.9576H39.8647ZM79.0424 98C70.6851 98 63.922 95.6257 58.7532 90.877C53.5844 86.0963 51 79.8877 51 72.2513V70.9037C51 65.5775 52.0237 60.877 54.0711 56.8021C56.152 52.7273 59.1728 49.5829 63.1333 47.369C67.0938 45.123 71.7927 44 77.23 44C84.8825 44 90.924 46.2781 95.3544 50.8342C99.7848 55.3583 102 61.6791 102 69.7968V76.1016H68.2685C68.8727 79.0214 70.1984 81.3155 72.2458 82.984C74.2932 84.6524 76.9447 85.4866 80.2004 85.4866C85.5706 85.4866 89.766 83.6898 92.7868 80.0963L100.54 88.8556C98.4255 91.6471 95.4215 93.877 91.5281 95.5454C87.6683 97.1818 83.5064 98 79.0424 98ZM77.1293 56.5134C72.1619 56.5134 69.2083 59.6578 68.2685 65.9465H85.386V64.6952C85.4531 62.0963 84.7651 60.0909 83.3218 58.6791C81.8786 57.2353 79.8144 56.5134 77.1293 56.5134ZM122.881 51.0699L122.314 44.9619H106V97H123.398V60.7849C125.153 57.9313 127.7 56.5045 131.038 56.5045C133.654 56.5045 135.426 57.1137 136.356 58.3321C137.285 59.5505 137.75 61.5224 137.75 64.2477V97H155.199V61.4583L155.147 60.7849C156.834 57.9313 159.398 56.5045 162.839 56.5045C165.386 56.5045 167.141 57.1137 168.105 58.3321C169.069 59.5505 169.551 61.4903 169.551 64.1515V97H187V63.1416C186.69 50.3805 180.874 44 169.551 44C162.392 44 156.92 46.6131 153.134 51.8394C150.656 46.6131 145.889 44 138.834 44C132.157 44 126.839 46.3566 122.881 51.0699Z" fill="#307FE2"/>
<rect width="26.7627" height="27.479" transform="matrix(0.859406 -0.511293 0 1 303 40.4451)" fill="#FFAA00"/>
<rect width="26.7627" height="27.479" transform="matrix(0.859406 -0.511293 0 1 349 13.6836)" fill="#FFAA00"/>
<path d="M326 93.3672L372 66.0001V93.4791L326 120.846L303 107L326 93.3672Z" fill="#41B6E6"/>
<path d="M349 52.6836L372 39V66.479V93.5L349 80.1625V52.6836Z" fill="#307FE2"/>
<path d="M303 79.6836L326 66V93.479V120.775L303 107.163V79.6836Z" fill="#307FE2"/>
</svg>
